<svg preserveAspectRatio="none" overflow="visible" style="display: block;" width="206.978" height="120" viewBox="0 0 206.978 120" fill="none" xmlns="http://www.w3.org/2000/svg">
<path id="40+" d="M95.0259 1.5C103.648 1.5001 110.251 7.20143 114.849 16.1885C119.445 25.1721 122.21 37.7158 123.142 52.168L123.247 53.8799C124.224 71.5178 122.033 87.2926 117.359 98.8291C112.563 110.667 104.922 118.5 95.0259 118.5C85.6135 118.5 77.9789 110.645 73.0708 98.8418C68.1211 86.9385 65.6885 70.513 66.9097 52.168C67.8416 37.7189 70.5696 25.1749 75.148 16.1904C79.7305 7.19788 86.3355 1.5 95.0259 1.5ZM172.738 27.1699V28.6699C172.738 38.2351 172.703 45.2033 173.163 50.3428C173.625 55.5171 174.569 58.4709 176.224 60.2842C177.847 62.0616 180.421 63.0259 184.959 63.4775C189.493 63.9288 195.593 63.8408 203.978 63.8408H205.478V68.4355H203.978C195.599 68.4355 189.534 68.4502 185.05 69.1855C180.632 69.9102 178.041 71.2904 176.343 73.8125C174.562 76.4583 173.59 80.5948 173.105 87.291C172.623 93.944 172.631 102.825 172.595 114.772L172.59 116.268H168.171V114.768C168.171 102.818 168.224 93.9364 167.788 87.2803C167.348 80.5796 166.423 76.4439 164.682 73.7998C163.027 71.2863 160.482 69.9094 156.095 69.1855C151.641 68.4505 145.595 68.4355 137.215 68.4355H135.715V63.8408H137.215C145.602 63.8408 151.694 63.9383 156.217 63.499C160.744 63.0594 163.294 62.1089 164.896 60.3467C166.533 58.546 167.461 55.5995 167.911 50.4131C168.246 46.5513 168.305 41.6549 168.314 35.3955V27.1699H172.738ZM95.0259 6.25391C91.3072 6.25391 88.3062 7.78371 85.8218 10.5391C83.2989 13.3372 81.3127 17.4041 79.7876 22.3916C76.7379 32.3661 75.6706 45.5454 75.4576 58.1914V58.2002C75.1037 73.7362 76.6315 87.8127 80.0415 97.9463C83.4956 108.21 88.607 113.746 95.0259 113.746C101.441 113.746 106.518 108.216 109.956 97.9492C113.349 87.8134 114.876 73.734 114.593 58.1934V58.1924C114.309 45.5421 113.242 32.3648 110.21 22.3896C108.693 17.4009 106.719 13.3345 104.208 10.5371C101.735 7.78335 98.7438 6.25397 95.0259 6.25391ZM11.3111 75.6396H38.354V24.5098L11.3111 75.6396ZM51.3179 118.5H32.6597V114.021L34.0406 113.91C35.5747 113.787 36.5766 113.117 37.2456 112.094C37.9558 111.008 38.354 109.416 38.354 107.434V83.4229H2.4888L3.65189 81.2227L38.3492 15.5518C38.3035 13.7038 37.9088 11.9692 37.1919 10.6875C36.4522 9.36532 35.4249 8.59231 34.0406 8.48145L32.6597 8.37109V3.8916H45.6245V75.6396H55.5884V83.4229H45.6245V107.434C45.6245 109.413 46.0211 110.961 46.7271 112.025C47.3963 113.034 48.4168 113.726 49.9966 113.916L51.3179 114.075V118.5Z" fill="#423529" stroke="#423529" stroke-width="3"/>
</svg>
